<mxfile host="app.diagrams.net" agent="Mozilla/5.0 (Windows NT 10.0; Win64; x64) AppleWebKit/537.36 (KHTML, like Gecko) Chrome/137.0.0.0 Safari/537.36 Edg/137.0.0.0" version="27.1.4">
  <diagram name="Page-1" id="a37rwZKva4znCF6VoOHY">
    <mxGraphModel dx="778" dy="514" grid="1" gridSize="10" guides="1" tooltips="1" connect="1" arrows="1" fold="1" page="1" pageScale="1" pageWidth="850" pageHeight="1100" math="0" shadow="0">
      <root>
        <mxCell id="0" />
        <mxCell id="1" parent="0" />
        <mxCell id="IcCndtMi79gkeKu60ZV5-1" value="Người dùng" style="shape=umlActor;verticalLabelPosition=bottom;verticalAlign=top;html=1;outlineConnect=0;" vertex="1" parent="1">
          <mxGeometry x="360" y="380" width="30" height="60" as="geometry" />
        </mxCell>
        <mxCell id="IcCndtMi79gkeKu60ZV5-2" value="Xem thông tin liên lạc" style="ellipse;whiteSpace=wrap;html=1;" vertex="1" parent="1">
          <mxGeometry x="522.5" y="270" width="130" height="60" as="geometry" />
        </mxCell>
        <mxCell id="IcCndtMi79gkeKu60ZV5-3" value="Thêm phương thức liên lạc" style="ellipse;whiteSpace=wrap;html=1;" vertex="1" parent="1">
          <mxGeometry x="520" y="345" width="150" height="60" as="geometry" />
        </mxCell>
        <mxCell id="IcCndtMi79gkeKu60ZV5-4" value="Chỉnh sửa phương thức&amp;nbsp;liên lạc" style="ellipse;whiteSpace=wrap;html=1;" vertex="1" parent="1">
          <mxGeometry x="520" y="430" width="150" height="60" as="geometry" />
        </mxCell>
        <mxCell id="IcCndtMi79gkeKu60ZV5-5" value="" style="endArrow=classic;html=1;rounded=0;" edge="1" parent="1" source="IcCndtMi79gkeKu60ZV5-1" target="IcCndtMi79gkeKu60ZV5-2">
          <mxGeometry width="50" height="50" relative="1" as="geometry">
            <mxPoint x="720" y="370" as="sourcePoint" />
            <mxPoint x="770" y="320" as="targetPoint" />
          </mxGeometry>
        </mxCell>
        <mxCell id="IcCndtMi79gkeKu60ZV5-6" value="" style="endArrow=classic;html=1;rounded=0;" edge="1" parent="1" source="IcCndtMi79gkeKu60ZV5-1" target="IcCndtMi79gkeKu60ZV5-3">
          <mxGeometry width="50" height="50" relative="1" as="geometry">
            <mxPoint x="720" y="370" as="sourcePoint" />
            <mxPoint x="770" y="320" as="targetPoint" />
          </mxGeometry>
        </mxCell>
        <mxCell id="IcCndtMi79gkeKu60ZV5-7" value="" style="endArrow=classic;html=1;rounded=0;" edge="1" parent="1" source="IcCndtMi79gkeKu60ZV5-1" target="IcCndtMi79gkeKu60ZV5-4">
          <mxGeometry width="50" height="50" relative="1" as="geometry">
            <mxPoint x="720" y="370" as="sourcePoint" />
            <mxPoint x="770" y="320" as="targetPoint" />
          </mxGeometry>
        </mxCell>
        <mxCell id="IcCndtMi79gkeKu60ZV5-8" value="&lt;font face=&quot;Times New Roman, serif&quot;&gt;&lt;span style=&quot;font-size: 16px;&quot;&gt;&lt;b&gt;&amp;nbsp;UC Quản lí thông tin cá nhân&lt;/b&gt;&lt;/span&gt;&lt;/font&gt;" style="shape=umlFrame;whiteSpace=wrap;html=1;pointerEvents=0;width=130;height=40;align=center;" vertex="1" parent="1">
          <mxGeometry x="450" y="210" width="260" height="440" as="geometry" />
        </mxCell>
        <mxCell id="IcCndtMi79gkeKu60ZV5-9" value="Xóa phương thức liên lạc" style="ellipse;whiteSpace=wrap;html=1;" vertex="1" parent="1">
          <mxGeometry x="522.5" y="500" width="150" height="60" as="geometry" />
        </mxCell>
        <mxCell id="IcCndtMi79gkeKu60ZV5-10" value="Thiết lập phương thức chính" style="ellipse;whiteSpace=wrap;html=1;" vertex="1" parent="1">
          <mxGeometry x="520" y="580" width="160" height="60" as="geometry" />
        </mxCell>
        <mxCell id="IcCndtMi79gkeKu60ZV5-11" value="" style="endArrow=classic;html=1;rounded=0;" edge="1" parent="1" source="IcCndtMi79gkeKu60ZV5-1" target="IcCndtMi79gkeKu60ZV5-9">
          <mxGeometry width="50" height="50" relative="1" as="geometry">
            <mxPoint x="410" y="410" as="sourcePoint" />
            <mxPoint x="550" y="442" as="targetPoint" />
          </mxGeometry>
        </mxCell>
        <mxCell id="IcCndtMi79gkeKu60ZV5-12" value="" style="endArrow=classic;html=1;rounded=0;" edge="1" parent="1" source="IcCndtMi79gkeKu60ZV5-1" target="IcCndtMi79gkeKu60ZV5-10">
          <mxGeometry width="50" height="50" relative="1" as="geometry">
            <mxPoint x="450" y="440" as="sourcePoint" />
            <mxPoint x="590" y="472" as="targetPoint" />
          </mxGeometry>
        </mxCell>
      </root>
    </mxGraphModel>
  </diagram>
</mxfile>
